<svg xmlns="http://www.w3.org/2000/svg" viewBox="0 0 198.43 198.43"><defs><style>.cls-1{fill:#1d1d1b;}.cls-2{fill:#fff;}.cls-3{fill:none;}</style></defs><g id="Layer_2" data-name="Layer 2"><g id="Layer_1-2" data-name="Layer 1"><path class="cls-1" d="M160.3,136.35c0,3.53-1.1,6.09-3.13,9.11-6.12,9.09-14.59,15.3-23.34,21.34-6.13,4.23-12.55,7.12-20.36,7.44-9.82.39-19.56,2.44-29.38,3a268.45,268.45,0,0,1-32.58.45c-10-.63-14-5.75-13.27-16.32.27-4.22-.31-8.52-.05-12.75.5-7.91,1.34-15.78,2-23.68.14-1.61.26-3.23.27-4.84q.09-20,.15-39.95c0-4,.33-7.92,0-11.84-.51-6.33,1.91-10.78,7-14.62,5.92-4.5,11-10.12,16.93-14.61,10.39-7.88,22.92-11.13,35-15.48,9.67-3.5,19.55-3.53,29.58-3,5.15.28,8.13,2.66,9.18,7.74,1,4.75,1.94,9.52,3.36,14.14,2.45,8,4.91,16,8,23.68,4.29,10.73,11.14,20.63,10.65,33C160.26,111.58,160.17,124,160.3,136.35Z"/><path class="cls-2" d="M79.78,140.75H53v-6.57l7.39-2.89V86l-7.39-3V76.49H79.78v6.57l-7.29,3v45.27l7.29,2.89Z"/><path class="cls-2" d="M144.94,108.52a48.72,48.72,0,0,1-1.76,13.55,30,30,0,0,1-5.27,10.49,22.59,22.59,0,0,1-8.91,6.75,31.9,31.9,0,0,1-12.69,2.34,31.36,31.36,0,0,1-12.77-2.39,23.34,23.34,0,0,1-8.92-6.75A29.57,29.57,0,0,1,89.36,122a49.11,49.11,0,0,1-1.75-13.58,44.54,44.54,0,0,1,3.1-17.37,24.56,24.56,0,0,1,9.49-11.48q6.39-4.09,16.2-4.09t16,4.09a24.71,24.71,0,0,1,9.41,11.52A44.92,44.92,0,0,1,144.94,108.52Zm-44.56,0A42.53,42.53,0,0,0,102,121a15.71,15.71,0,0,0,5.18,8,14.29,14.29,0,0,0,9.13,2.8,14.09,14.09,0,0,0,9.09-2.8,15.91,15.91,0,0,0,5.14-8,42.55,42.55,0,0,0,1.61-12.52q0-10.87-3.69-17.09T116.4,85.22A14.55,14.55,0,0,0,107.18,88,15.85,15.85,0,0,0,102,96,42.48,42.48,0,0,0,100.38,108.52Z"/><rect class="cls-3" width="198.43" height="198.43"/></g></g></svg>