<svg xmlns="http://www.w3.org/2000/svg" viewBox="0 0 550.81 157.66"><defs><style>.cls-1{fill:#fff;}.cls-2{fill:#1d1d1b;}</style></defs><g id="Layer_2" data-name="Layer 2"><g id="Layer_1-2" data-name="Layer 1"><path class="cls-1" d="M550.81,116c0,3.53-1.1,6.09-3.13,9.11-6.12,9.09-14.59,15.3-23.34,21.33-6.13,4.24-12.55,7.13-20.36,7.44-9.82.4-19.56,2.45-29.38,3a268.45,268.45,0,0,1-32.58.45c-10-.63-14-5.76-13.28-16.32.28-4.23-.3-8.52,0-12.76.5-7.9,1.34-15.77,2-23.67.14-1.61.26-3.23.27-4.84q.09-20,.15-39.95c0-3.95.33-7.92,0-11.84-.5-6.33,1.92-10.78,7-14.62,5.91-4.51,11-10.12,16.93-14.61C465.42,10.85,478,7.6,490,3.25c9.67-3.5,19.54-3.53,29.58-3,5.15.28,8.13,2.66,9.18,7.74,1,4.74,1.93,9.52,3.36,14.14,2.45,8,4.91,16,8,23.68,4.29,10.73,11.13,20.63,10.64,33C550.76,91.2,550.68,103.59,550.81,116Z"/><path class="cls-1" d="M17.91,56.1a35.82,35.82,0,0,1,13.18,2.07,15.47,15.47,0,0,1,7.74,6.26A19.92,19.92,0,0,1,41.4,75a19.08,19.08,0,0,1-1.53,8,16.27,16.27,0,0,1-4,5.54,21.75,21.75,0,0,1-5.58,3.55l17.28,28.26H33.84L19.89,95H12.06v25.38H0V56.1Zm-.54,9.63H12.06v19.8h5.49a15.8,15.8,0,0,0,6.53-1.17,8.05,8.05,0,0,0,3.82-3.42,11.29,11.29,0,0,0,1.26-5.58,10.91,10.91,0,0,0-1.26-5.62A7.15,7.15,0,0,0,24,66.68,19.83,19.83,0,0,0,17.37,65.73Z"/><path class="cls-1" d="M96,95.88a34.76,34.76,0,0,1-1.53,10.8,22.19,22.19,0,0,1-4.46,8A18.62,18.62,0,0,1,83,119.6a24.65,24.65,0,0,1-9.27,1.66,23,23,0,0,1-8.82-1.66,19.2,19.2,0,0,1-7-4.95,22.88,22.88,0,0,1-4.59-8,33,33,0,0,1-1.62-10.8,31.51,31.51,0,0,1,2.7-13.72,19.26,19.26,0,0,1,7.69-8.55A23.21,23.21,0,0,1,74,70.68a21.83,21.83,0,0,1,11.38,3,20.44,20.44,0,0,1,7.83,8.55A30,30,0,0,1,96,95.88Zm-32.22,0a32.5,32.5,0,0,0,1,8.78,11,11,0,0,0,3.24,5.53,8.62,8.62,0,0,0,5.81,1.89,8.46,8.46,0,0,0,5.71-1.89,11,11,0,0,0,3.24-5.53,32.47,32.47,0,0,0,1-8.78,31.78,31.78,0,0,0-1-8.77,10.72,10.72,0,0,0-3.24-5.4,8.74,8.74,0,0,0-5.8-1.85q-5.31,0-7.65,4.14T63.81,95.88Z"/><path class="cls-1" d="M138.6,106.23a15,15,0,0,1-2.16,8.24,13.17,13.17,0,0,1-6.39,5.08,28.52,28.52,0,0,1-10.62,1.71,43.62,43.62,0,0,1-8.46-.72,31.2,31.2,0,0,1-6.93-2.25v-9.63a48.57,48.57,0,0,0,7.78,2.88,28.52,28.52,0,0,0,7.61,1.17q4,0,5.85-1.44a4.7,4.7,0,0,0,1.8-3.87,4.48,4.48,0,0,0-.81-2.61,9.55,9.55,0,0,0-3.06-2.47Q121,101,116.64,99a46.35,46.35,0,0,1-7-3.78,12.93,12.93,0,0,1-4.23-4.54A14,14,0,0,1,104,84q0-6.57,5-9.94T122,70.68a37.65,37.65,0,0,1,8.23.86,34.89,34.89,0,0,1,7.7,2.74l-3.51,8.37q-2.16-1-4.37-1.75a37.11,37.11,0,0,0-4.27-1.22,18.65,18.65,0,0,0-4-.45,8.36,8.36,0,0,0-4.77,1.13,3.57,3.57,0,0,0-1.62,3.1,4.27,4.27,0,0,0,.85,2.66,9.35,9.35,0,0,0,3.06,2.29q2.2,1.17,6.35,2.88a44.76,44.76,0,0,1,7,3.56,12.58,12.58,0,0,1,4.36,4.54A14.08,14.08,0,0,1,138.6,106.23Z"/><path class="cls-1" d="M167.76,70.68a21.11,21.11,0,0,1,10.84,2.66,18.14,18.14,0,0,1,7.07,7.56,25.83,25.83,0,0,1,2.52,11.92v5.76H158.31q.18,6.66,3.28,10.31t8.78,3.64a31,31,0,0,0,8-.94,42.61,42.61,0,0,0,7.34-2.75v9.09a30.43,30.43,0,0,1-7.11,2.52,43.22,43.22,0,0,1-9.09.81,25.83,25.83,0,0,1-12.11-2.74,19.36,19.36,0,0,1-8.23-8.33q-3-5.58-3-13.86a32.83,32.83,0,0,1,2.7-14.08,19.35,19.35,0,0,1,7.6-8.64A21.65,21.65,0,0,1,167.76,70.68Zm.18,8.37A8.17,8.17,0,0,0,161.46,82q-2.52,2.92-3,8.68h18.36a16.94,16.94,0,0,0-1-6,8.91,8.91,0,0,0-3-4.09A8,8,0,0,0,167.94,79.05Z"/><path class="cls-1" d="M217.53,112.17a17.81,17.81,0,0,0,3.82-.4,34.13,34.13,0,0,0,3.47-1v8.46a25.31,25.31,0,0,1-4.64,1.4,28.69,28.69,0,0,1-6,.58,18.61,18.61,0,0,1-7.34-1.39,10.37,10.37,0,0,1-5.13-4.82q-1.84-3.42-1.84-9.54V80.13h-6.12V75.18l6.84-4,3.6-10.35h7.56V71.58h12.6v8.55h-12.6v25.29a7.18,7.18,0,0,0,1.57,5.09A5.48,5.48,0,0,0,217.53,112.17Z"/><path class="cls-1" d="M252.81,112.17a17.81,17.81,0,0,0,3.82-.4,34.13,34.13,0,0,0,3.47-1v8.46a25.55,25.55,0,0,1-4.64,1.4,28.69,28.69,0,0,1-6,.58,18.61,18.61,0,0,1-7.34-1.39,10.37,10.37,0,0,1-5.13-4.82q-1.84-3.42-1.84-9.54V80.13H229V75.18l6.85-4,3.6-10.35H247V71.58h12.61v8.55H247v25.29a7.18,7.18,0,0,0,1.58,5.09A5.48,5.48,0,0,0,252.81,112.17Z"/><path class="cls-1" d="M288.54,70.68q8.82,0,13.5,4.1c3.11,2.73,4.68,7,4.68,12.82v32.76h-8.37L296,113.61h-.36a27.91,27.91,0,0,1-4,4.37,12.72,12.72,0,0,1-4.73,2.52,23.94,23.94,0,0,1-6.53.76,16.11,16.11,0,0,1-7.29-1.62,12,12,0,0,1-5.13-5,17.37,17.37,0,0,1-1.88-8.51q0-7.56,5.21-11.38T287,90.57l7.74-.27V87.87q0-4.68-1.94-6.66a7.25,7.25,0,0,0-5.44-2,20.83,20.83,0,0,0-6.53,1.08,61.21,61.21,0,0,0-6.43,2.52l-3.7-7.92a37.74,37.74,0,0,1,8.15-3.06A38.73,38.73,0,0,1,288.54,70.68Zm1.17,26.82q-6.4.27-8.92,2.57a7.91,7.91,0,0,0-2.51,6.16q0,3.42,1.75,5a6.8,6.8,0,0,0,4.64,1.53,10,10,0,0,0,7.2-2.83c2-1.89,3-4.7,3-8.42V97.32Z"/><path class="cls-1" d="M356.76,102.81a18.25,18.25,0,0,1-2.57,9.81,16.63,16.63,0,0,1-7.56,6.39,30.12,30.12,0,0,1-12.37,2.25,50.08,50.08,0,0,1-6.57-.4,35,35,0,0,1-10.8-3.2v-10.8a82.46,82.46,0,0,0,8.77,3.29,30.65,30.65,0,0,0,9.23,1.48,13,13,0,0,0,5.58-1,7,7,0,0,0,3.19-2.88,8.61,8.61,0,0,0,1-4.28,7.88,7.88,0,0,0-1.31-4.59,12.67,12.67,0,0,0-4-3.51,48.86,48.86,0,0,0-7-3.33A42.37,42.37,0,0,1,324.9,88a16.76,16.76,0,0,1-5.4-6,19.24,19.24,0,0,1-2-9.18,16.7,16.7,0,0,1,2.61-9.45,16.41,16.41,0,0,1,7.29-6,26.71,26.71,0,0,1,10.89-2.07,40,40,0,0,1,9.54,1.08,38.09,38.09,0,0,1,8.28,3.06l-3.78,9.27a47.37,47.37,0,0,0-7.29-2.7,26.73,26.73,0,0,0-7.11-1,10.37,10.37,0,0,0-4.68,1,6.41,6.41,0,0,0-2.84,2.65,8.05,8.05,0,0,0-.94,4,7.7,7.7,0,0,0,1.21,4.41,11.68,11.68,0,0,0,4,3.38q2.74,1.58,7.07,3.64a47.4,47.4,0,0,1,8.14,4.59A16.41,16.41,0,0,1,355,94.35,18.39,18.39,0,0,1,356.76,102.81Z"/><path class="cls-1" d="M386,121.26a24.12,24.12,0,0,1-11.65-2.65,17.66,17.66,0,0,1-7.56-8.19q-2.66-5.53-2.66-14.18,0-9,2.93-14.62a18.71,18.71,0,0,1,8.05-8.28,25.29,25.29,0,0,1,11.79-2.66,32.44,32.44,0,0,1,7.79.9,27.72,27.72,0,0,1,6.07,2.16l-3.6,8.73q-2.43-1-4.86-1.71a17.34,17.34,0,0,0-4.95-.72,9.85,9.85,0,0,0-6,1.8,11.27,11.27,0,0,0-3.73,5.36,26.23,26.23,0,0,0-1.31,9,25.25,25.25,0,0,0,1.31,8.73,11,11,0,0,0,3.73,5.27,9.87,9.87,0,0,0,5.94,1.75,20.83,20.83,0,0,0,6.53-1,25.49,25.49,0,0,0,5.71-2.7V118a20.62,20.62,0,0,1-5.94,2.48A32.45,32.45,0,0,1,386,121.26Z"/><path class="cls-1" d="M415.88,52.77a7.73,7.73,0,0,1,4.5,1.31q1.89,1.31,1.89,4.63t-1.89,4.64a7.36,7.36,0,0,1-4.5,1.39,7.66,7.66,0,0,1-4.68-1.39q-1.89-1.4-1.89-4.64t1.89-4.63A8,8,0,0,1,415.88,52.77Zm5.85,18.81v48.78H409.85V71.58Z"/><path class="cls-2" d="M470.51,120.36H443.78v-6.57l7.38-2.88V65.64l-7.38-3V56.1h26.73v6.57l-7.29,3v45.27l7.29,2.88Z"/><path class="cls-2" d="M535.67,88.14a48.78,48.78,0,0,1-1.75,13.55,30,30,0,0,1-5.27,10.48,22.73,22.73,0,0,1-8.91,6.75,35.54,35.54,0,0,1-25.47,0,23.31,23.31,0,0,1-8.91-6.75,29.49,29.49,0,0,1-5.26-10.49,49.22,49.22,0,0,1-1.76-13.59,44.57,44.57,0,0,1,3.11-17.37,24.53,24.53,0,0,1,9.49-11.47q6.39-4.1,16.2-4.1t16,4.1a24.71,24.71,0,0,1,9.41,11.52A44.89,44.89,0,0,1,535.67,88.14Zm-44.55,0a42.5,42.5,0,0,0,1.62,12.51,15.78,15.78,0,0,0,5.18,8,14.34,14.34,0,0,0,9.13,2.79,14.17,14.17,0,0,0,9.09-2.79,15.91,15.91,0,0,0,5.13-8,42.5,42.5,0,0,0,1.62-12.51q0-10.89-3.69-17.1t-12.06-6.21a14.49,14.49,0,0,0-9.22,2.79,15.78,15.78,0,0,0-5.18,8A42.5,42.5,0,0,0,491.12,88.14Z"/><path class="cls-1" d="M360.62,64.78c-1.45,4.35-13.66,4.75-16.49,3.57-1.48-.61-2.92-4-5.68-4-1.74,0-3.46-2.71-4.89-2.51l0-3.62c1.55-.11,4.39-2.94,4.87-3,5.91-.26,11-2,13.89-.7S362,60.55,360.62,64.78Z"/><line class="cls-1" x1="358.26" y1="63.33" x2="364.17" y2="65.16"/><path class="cls-1" d="M364.17,66.61a1.65,1.65,0,0,1-.43-.06l-5.91-1.83a1.45,1.45,0,1,1,.86-2.77l5.91,1.83a1.45,1.45,0,0,1-.43,2.83Z"/><line class="cls-1" x1="370.17" y1="61.7" x2="364.17" y2="65.16"/><path class="cls-1" d="M364.17,66.61a1.45,1.45,0,0,1-.72-2.71l6-3.46A1.45,1.45,0,0,1,370.89,63l-6,3.46A1.47,1.47,0,0,1,364.17,66.61Z"/><line class="cls-1" x1="367.78" y1="71.13" x2="364.32" y2="65.14"/><path class="cls-1" d="M367.78,72.58a1.46,1.46,0,0,1-1.26-.72l-3.46-6a1.45,1.45,0,1,1,2.51-1.45l3.46,6a1.44,1.44,0,0,1-.53,2A1.41,1.41,0,0,1,367.78,72.58Z"/></g></g></svg>