<svg xmlns="http://www.w3.org/2000/svg" viewBox="0 0 122.18 157.66"><defs><style>.cls-1{fill:#1d1d1b;}.cls-2{fill:#fff;}</style></defs><g id="Layer_2" data-name="Layer 2"><g id="Layer_1-2" data-name="Layer 1"><path class="cls-1" d="M122.18,116c0,3.53-1.1,6.09-3.13,9.11-6.12,9.09-14.59,15.3-23.34,21.33-6.13,4.24-12.55,7.13-20.36,7.44-9.82.4-19.56,2.45-29.38,3a268.45,268.45,0,0,1-32.58.45c-10-.63-14-5.76-13.28-16.32.28-4.23-.3-8.52,0-12.76.5-7.9,1.34-15.77,2-23.67.14-1.61.26-3.23.27-4.84q.09-20,.15-39.95c0-3.95.33-7.92,0-11.84-.5-6.33,1.91-10.78,7-14.62,5.91-4.51,11-10.12,16.93-14.61,10.38-7.88,22.92-11.13,35-15.48C71-.25,80.91-.28,91,.25,96.1.53,99.08,2.91,100.13,8c1,4.74,1.93,9.52,3.36,14.14,2.45,8,4.91,16,8,23.68,4.29,10.73,11.13,20.63,10.64,33C122.13,91.2,122.05,103.59,122.18,116Z"/><path class="cls-2" d="M41.65,120.36H14.92v-6.57l7.38-2.88V65.64l-7.38-3V56.1H41.65v6.57l-7.29,3v45.27l7.29,2.88Z"/><path class="cls-2" d="M106.81,88.14a48.78,48.78,0,0,1-1.75,13.55,30,30,0,0,1-5.27,10.48,22.73,22.73,0,0,1-8.91,6.75,31.72,31.72,0,0,1-12.69,2.34,31.45,31.45,0,0,1-12.78-2.38,23.31,23.31,0,0,1-8.91-6.75,29.49,29.49,0,0,1-5.26-10.49,49.22,49.22,0,0,1-1.76-13.59,44.57,44.57,0,0,1,3.11-17.37,24.53,24.53,0,0,1,9.49-11.47q6.39-4.1,16.2-4.1t16,4.1a24.71,24.71,0,0,1,9.41,11.52A44.89,44.89,0,0,1,106.81,88.14Zm-44.55,0a42.5,42.5,0,0,0,1.62,12.51,15.78,15.78,0,0,0,5.18,8,14.34,14.34,0,0,0,9.13,2.79,14.17,14.17,0,0,0,9.09-2.79,15.91,15.91,0,0,0,5.13-8A42.5,42.5,0,0,0,94,88.14Q94,77.25,90.34,71T78.28,64.83a14.49,14.49,0,0,0-9.22,2.79,15.78,15.78,0,0,0-5.18,8A42.5,42.5,0,0,0,62.26,88.14Z"/></g></g></svg>