<svg xmlns="http://www.w3.org/2000/svg" viewBox="0 0 595.28 197.39"><defs><style>.cls-1{fill:#010101;}.cls-2{fill:#fff;}.cls-3{fill:#1d1d1b;}</style></defs><g id="Layer_2" data-name="Layer 2"><g id="Layer_1-2" data-name="Layer 1"><rect class="cls-1" width="595.28" height="197.39"/><path class="cls-2" d="M576.82,127.83c0,3.54-1.1,6.1-3.13,9.11-6.12,9.1-14.59,15.3-23.34,21.34-6.13,4.24-12.55,7.13-20.36,7.44-9.82.4-19.55,2.45-29.38,3a268.45,268.45,0,0,1-32.58.44c-10-.63-14-5.75-13.27-16.31.27-4.23-.31-8.52-.05-12.76.5-7.9,1.34-15.78,2-23.67.14-1.62.26-3.23.27-4.85.07-13.31.09-26.63.15-39.95,0-4,.33-7.92,0-11.83-.51-6.33,1.91-10.78,6.95-14.62,5.92-4.51,11-10.12,16.93-14.62,10.39-7.87,22.92-11.12,35-15.47,9.67-3.5,19.55-3.54,29.58-3,5.15.27,8.13,2.66,9.18,7.73,1,4.75,1.94,9.52,3.36,14.15,2.45,8,4.91,16,8,23.68,4.29,10.73,11.14,20.62,10.65,33C576.78,103.06,576.69,115.45,576.82,127.83Z"/><path class="cls-2" d="M43.92,68A35.88,35.88,0,0,1,57.11,70a15.46,15.46,0,0,1,7.74,6.25,20,20,0,0,1,2.56,10.58,19.08,19.08,0,0,1-1.53,8,16.23,16.23,0,0,1-4,5.53A21.52,21.52,0,0,1,56.25,104l17.28,28.26H59.85l-14-25.38H38.07v25.38H26V68Zm-.54,9.63H38.07V97.4h5.49a15.8,15.8,0,0,0,6.53-1.17,8.05,8.05,0,0,0,3.82-3.42,11.29,11.29,0,0,0,1.26-5.58,11,11,0,0,0-1.26-5.63A7.19,7.19,0,0,0,50,78.54,19.86,19.86,0,0,0,43.38,77.6Z"/><path class="cls-2" d="M122,107.75a34.76,34.76,0,0,1-1.53,10.8,22.12,22.12,0,0,1-4.45,8,18.55,18.55,0,0,1-7.07,5,24.65,24.65,0,0,1-9.27,1.67,23,23,0,0,1-8.82-1.67,19.08,19.08,0,0,1-7-5,22.83,22.83,0,0,1-4.59-8,33,33,0,0,1-1.62-10.8A31.56,31.56,0,0,1,80.37,94a19.33,19.33,0,0,1,7.7-8.55A23.27,23.27,0,0,1,100,82.55a21.86,21.86,0,0,1,11.39,3,20.44,20.44,0,0,1,7.83,8.55A30,30,0,0,1,122,107.75Zm-32.22,0a32.39,32.39,0,0,0,1,8.77,10.9,10.9,0,0,0,3.24,5.54A8.6,8.6,0,0,0,99.9,124a8.49,8.49,0,0,0,5.72-1.89,11,11,0,0,0,3.24-5.54,32.82,32.82,0,0,0,1-8.77,32.33,32.33,0,0,0-1-8.78,10.72,10.72,0,0,0-3.24-5.4,8.81,8.81,0,0,0-5.81-1.84q-5.31,0-7.65,4.14T89.82,107.75Z"/><path class="cls-2" d="M164.61,118.1a15,15,0,0,1-2.16,8.23,13.18,13.18,0,0,1-6.39,5.09,28.52,28.52,0,0,1-10.62,1.71,43.62,43.62,0,0,1-8.46-.72,31.2,31.2,0,0,1-6.93-2.25v-9.63a48.57,48.57,0,0,0,7.78,2.88,28.52,28.52,0,0,0,7.61,1.17q4,0,5.85-1.44a4.7,4.7,0,0,0,1.8-3.87,4.48,4.48,0,0,0-.81-2.61,9.55,9.55,0,0,0-3.06-2.48c-1.5-.86-3.69-2-6.57-3.28a46.35,46.35,0,0,1-7-3.78,13,13,0,0,1-4.23-4.55,13.91,13.91,0,0,1-1.44-6.7q0-6.57,5-10t13.1-3.37a37.83,37.83,0,0,1,8.24.85A35.57,35.57,0,0,1,164,86.15l-3.51,8.37q-2.16-1-4.37-1.76a39.12,39.12,0,0,0-4.27-1.21,18.65,18.65,0,0,0-4-.45,8.36,8.36,0,0,0-4.77,1.12,3.6,3.6,0,0,0-1.62,3.11,4.24,4.24,0,0,0,.85,2.65,9.22,9.22,0,0,0,3.06,2.3q2.21,1.17,6.35,2.88a45.67,45.67,0,0,1,7,3.55,12.61,12.61,0,0,1,4.36,4.55A14,14,0,0,1,164.61,118.1Z"/><path class="cls-2" d="M193.77,82.55a21.21,21.21,0,0,1,10.84,2.65,18.14,18.14,0,0,1,7.07,7.56,25.9,25.9,0,0,1,2.52,11.93v5.76H184.32q.18,6.66,3.28,10.3t8.78,3.65a31,31,0,0,0,8-1,42.54,42.54,0,0,0,7.34-2.74v9.09a30.43,30.43,0,0,1-7.11,2.52,43.22,43.22,0,0,1-9.09.81,25.71,25.71,0,0,1-12.11-2.75,19.34,19.34,0,0,1-8.23-8.32q-3-5.58-3-13.86a32.91,32.91,0,0,1,2.7-14.09,19.35,19.35,0,0,1,7.6-8.64A21.74,21.74,0,0,1,193.77,82.55Zm.18,8.37a8.19,8.19,0,0,0-6.48,2.92q-2.52,2.93-3,8.69h18.36a16.94,16.94,0,0,0-1-6,8.94,8.94,0,0,0-3-4.1A8,8,0,0,0,194,90.92Z"/><path class="cls-2" d="M243.54,124a17.74,17.74,0,0,0,3.82-.41,34.17,34.17,0,0,0,3.47-.94v8.46a25.36,25.36,0,0,1-4.64,1.39,28.66,28.66,0,0,1-6,.59,18.61,18.61,0,0,1-7.34-1.4,10.35,10.35,0,0,1-5.13-4.81q-1.85-3.42-1.84-9.54V92h-6.12v-5l6.84-4,3.6-10.35h7.56V83.45h12.6V92h-12.6v25.29a7.16,7.16,0,0,0,1.57,5.08A5.47,5.47,0,0,0,243.54,124Z"/><path class="cls-2" d="M278.82,124a17.74,17.74,0,0,0,3.82-.41,34.17,34.17,0,0,0,3.47-.94v8.46a25.36,25.36,0,0,1-4.64,1.39,28.66,28.66,0,0,1-6,.59,18.61,18.61,0,0,1-7.34-1.4,10.35,10.35,0,0,1-5.13-4.81q-1.84-3.42-1.84-9.54V92h-6.12v-5l6.84-4,3.6-10.35h7.56V83.45h12.6V92h-12.6v25.29a7.16,7.16,0,0,0,1.57,5.08A5.47,5.47,0,0,0,278.82,124Z"/><path class="cls-2" d="M314.55,82.55q8.82,0,13.5,4.09t4.68,12.83v32.76h-8.37L322,125.48h-.36a27.35,27.35,0,0,1-4.05,4.36,12.5,12.5,0,0,1-4.73,2.52,23.83,23.83,0,0,1-6.52.77,16.08,16.08,0,0,1-7.29-1.62,11.94,11.94,0,0,1-5.13-5,17.22,17.22,0,0,1-1.89-8.5q0-7.56,5.22-11.39T313,102.44l7.74-.27V99.74q0-4.68-1.94-6.66a7.25,7.25,0,0,0-5.44-2,20.83,20.83,0,0,0-6.53,1.08,62.08,62.08,0,0,0-6.43,2.52l-3.69-7.92a37.64,37.64,0,0,1,8.14-3.06A38.73,38.73,0,0,1,314.55,82.55Zm1.17,26.82q-6.39.27-8.91,2.56a7.94,7.94,0,0,0-2.52,6.17q0,3.42,1.75,5a6.81,6.81,0,0,0,4.64,1.53,10.05,10.05,0,0,0,7.2-2.84q3-2.83,3-8.41v-4.14Z"/><path class="cls-2" d="M382.77,114.68a18.25,18.25,0,0,1-2.57,9.81,16.63,16.63,0,0,1-7.56,6.39,30.09,30.09,0,0,1-12.37,2.25,50.13,50.13,0,0,1-6.57-.41,34.66,34.66,0,0,1-10.8-3.19v-10.8a82.48,82.48,0,0,0,8.77,3.28,30.72,30.72,0,0,0,9.23,1.49,13,13,0,0,0,5.58-1,6.92,6.92,0,0,0,3.19-2.88,8.55,8.55,0,0,0,1-4.27,7.88,7.88,0,0,0-1.31-4.59,12.67,12.67,0,0,0-4-3.51,48.86,48.86,0,0,0-7-3.33,42.37,42.37,0,0,1-7.47-4,16.85,16.85,0,0,1-5.4-6,19.24,19.24,0,0,1-2-9.18,16.78,16.78,0,0,1,2.61-9.45,16.46,16.46,0,0,1,7.29-6,26.71,26.71,0,0,1,10.89-2.07,40,40,0,0,1,9.54,1.08,37.9,37.9,0,0,1,8.28,3.06l-3.78,9.27a47,47,0,0,0-7.29-2.7,26.73,26.73,0,0,0-7.11-1,10.41,10.41,0,0,0-4.68.94,6.43,6.43,0,0,0-2.84,2.66,8.05,8.05,0,0,0-.94,4,7.7,7.7,0,0,0,1.21,4.41,11.55,11.55,0,0,0,4,3.37q2.74,1.58,7.07,3.65a47.4,47.4,0,0,1,8.14,4.59,16.41,16.41,0,0,1,5.13,5.85A18.39,18.39,0,0,1,382.77,114.68Z"/><path class="cls-2" d="M412,133.13a24.16,24.16,0,0,1-11.66-2.66,17.61,17.61,0,0,1-7.56-8.19q-2.66-5.53-2.65-14.17,0-9,2.92-14.63a18.78,18.78,0,0,1,8.06-8.28,25.38,25.38,0,0,1,11.79-2.65,32.41,32.41,0,0,1,7.78.9,27.82,27.82,0,0,1,6.08,2.16l-3.6,8.73q-2.43-1-4.86-1.71a17.39,17.39,0,0,0-4.95-.72,9.83,9.83,0,0,0-6,1.8,11.25,11.25,0,0,0-3.74,5.35,26.36,26.36,0,0,0-1.3,9,25.26,25.26,0,0,0,1.3,8.73,11,11,0,0,0,3.74,5.26,9.88,9.88,0,0,0,5.94,1.76,20.77,20.77,0,0,0,6.52-1,25.56,25.56,0,0,0,5.72-2.7v9.81a20.44,20.44,0,0,1-5.94,2.47A32.53,32.53,0,0,1,412,133.13Z"/><path class="cls-2" d="M441.9,64.64a7.72,7.72,0,0,1,4.5,1.3q1.89,1.31,1.89,4.64t-1.89,4.63a7.31,7.31,0,0,1-4.5,1.4,7.6,7.6,0,0,1-4.68-1.4q-1.89-1.39-1.89-4.63t1.89-4.64A8,8,0,0,1,441.9,64.64Zm5.85,18.81v48.78H435.87V83.45Z"/><path class="cls-3" d="M496.53,132.23H469.79v-6.57l7.38-2.88V77.51l-7.38-3V68h26.74v6.57l-7.29,3v45.27l7.29,2.88Z"/><path class="cls-3" d="M561.68,100a48.71,48.71,0,0,1-1.75,13.54A30,30,0,0,1,554.66,124a22.66,22.66,0,0,1-8.91,6.75,35.44,35.44,0,0,1-25.46,0,23.07,23.07,0,0,1-8.92-6.75,29.61,29.61,0,0,1-5.26-10.48,49.22,49.22,0,0,1-1.76-13.59,44.57,44.57,0,0,1,3.11-17.37A24.61,24.61,0,0,1,517,71.07Q523.34,67,533.16,67t16,4.09a24.76,24.76,0,0,1,9.41,11.52A44.94,44.94,0,0,1,561.68,100Zm-44.55,0a42.5,42.5,0,0,0,1.62,12.51,15.78,15.78,0,0,0,5.18,8,14.35,14.35,0,0,0,9.14,2.79,14.19,14.19,0,0,0,9.09-2.79,16,16,0,0,0,5.13-8A42.5,42.5,0,0,0,548.91,100q0-10.89-3.7-17.1T533.16,76.7a14.5,14.5,0,0,0-9.23,2.79,15.78,15.78,0,0,0-5.18,8A42.5,42.5,0,0,0,517.13,100Z"/><path class="cls-2" d="M386.63,76.65C385.18,81,373,81.4,370.14,80.22c-1.47-.62-2.92-4.06-5.68-4.06-1.73,0-3.46-2.7-4.89-2.5l0-3.62c1.55-.12,4.39-2.94,4.87-3,5.91-.27,11-2,13.89-.7S388,72.42,386.63,76.65Z"/><line class="cls-2" x1="384.27" y1="75.2" x2="390.18" y2="77.03"/><path class="cls-2" d="M390.18,78.48a1.33,1.33,0,0,1-.43-.07l-5.91-1.83a1.45,1.45,0,1,1,.86-2.77l5.91,1.83a1.45,1.45,0,0,1-.43,2.84Z"/><line class="cls-2" x1="396.18" y1="73.56" x2="390.18" y2="77.03"/><path class="cls-2" d="M390.18,78.48a1.45,1.45,0,0,1-.72-2.71l6-3.46a1.45,1.45,0,0,1,1.45,2.51l-6,3.46A1.49,1.49,0,0,1,390.18,78.48Z"/><line class="cls-2" x1="393.79" y1="83" x2="390.33" y2="77"/><path class="cls-2" d="M393.79,84.45a1.45,1.45,0,0,1-1.26-.73l-3.46-6a1.45,1.45,0,0,1,2.51-1.45l3.47,6a1.45,1.45,0,0,1-.53,2A1.39,1.39,0,0,1,393.79,84.45Z"/></g></g></svg>